<svg id="Capa_1" data-name="Capa 1" xmlns="http://www.w3.org/2000/svg" viewBox="0 0 25 25"><defs><style>.cls-1{fill:#fff;}.cls-2{fill:#424241;}</style></defs><title>footer</title><circle class="cls-1" cx="12.5" cy="12.5" r="12.5"/><path class="cls-2" d="M15.62,20H9.78a4.71,4.71,0,0,1-4.7-4.7V10.16a4.71,4.71,0,0,1,4.7-4.7h5.84a4.7,4.7,0,0,1,4.69,4.7V15.3A4.7,4.7,0,0,1,15.62,20ZM9.78,6.51a3.65,3.65,0,0,0-3.65,3.65V15.3A3.66,3.66,0,0,0,9.78,19h5.84a3.66,3.66,0,0,0,3.65-3.66V10.16a3.65,3.65,0,0,0-3.65-3.65Z"/><path class="cls-2" d="M12.7,16.91a4.18,4.18,0,1,1,4.18-4.18A4.18,4.18,0,0,1,12.7,16.91Zm0-7.32a3.14,3.14,0,1,0,3.14,3.14A3.15,3.15,0,0,0,12.7,9.59Z"/><path class="cls-2" d="M17.68,8.68a.87.87,0,1,1-.86-.87A.86.86,0,0,1,17.68,8.68Z"/></svg>