<svg id="Capa_1" data-name="Capa 1" xmlns="http://www.w3.org/2000/svg" viewBox="0 0 323.9 45.1"><defs><style>.cls-1{fill:#fff;}.cls-2{fill:#c8002d;}</style></defs><title>footer</title><path class="cls-1" d="M69.54,37.29a6,6,0,0,0,.7,3.09c.47.79,1.43,1.19,2.88,1.19q.82,0,1.53-.06a6,6,0,0,0,1.41-.31l.19,3.14a12.55,12.55,0,0,1-4.16.63q-3.57,0-5.21-2.11a8.47,8.47,0,0,1-1.63-5.32V0h2.51a1.76,1.76,0,0,1,1.78,1.74Z"/><path class="cls-1" d="M91.85,17a7.79,7.79,0,0,0-3.74.87,8.75,8.75,0,0,0-2.75,2.29,10.58,10.58,0,0,0-1.73,3.19A12.71,12.71,0,0,0,83,27H99.33a11.08,11.08,0,0,0-1.47-7.16Q96,17,91.85,17M92,13.79a12.31,12.31,0,0,1,5.14,1,9.74,9.74,0,0,1,3.55,2.68,10.64,10.64,0,0,1,2,4,18,18,0,0,1,.64,4.85,23.08,23.08,0,0,1-.39,4.15H83c0,3.68.94,6.48,2.68,8.4S90,41.7,93.51,41.7a20.67,20.67,0,0,0,4.73-.54,22.7,22.7,0,0,0,2.2-.62,1.85,1.85,0,0,1,2.42,1.3l.24,1.08a21.53,21.53,0,0,1-4.64,1.57,23.85,23.85,0,0,1-5.4.61,15.62,15.62,0,0,1-6.36-1.2,12.37,12.37,0,0,1-4.51-3.3,14.07,14.07,0,0,1-2.68-5,20.39,20.39,0,0,1-.9-6.14,20.21,20.21,0,0,1,.93-6.27,15.07,15.07,0,0,1,2.65-5A11.9,11.9,0,0,1,86.41,15,13.09,13.09,0,0,1,92,13.79"/><path class="cls-1" d="M122.32,17.2a10.56,10.56,0,0,0-4.54,1,14.15,14.15,0,0,0-3.58,2.31V40.75a16.61,16.61,0,0,0,6.08,1q5.63,0,8.5-3.36t2.88-9.05a19.65,19.65,0,0,0-.55-4.72,11.4,11.4,0,0,0-1.69-3.83,8.41,8.41,0,0,0-2.91-2.59,8.62,8.62,0,0,0-4.19-.95M109.92,0h2.5a1.76,1.76,0,0,1,1.78,1.75V17.32a11.17,11.17,0,0,1,3.68-2.45,13,13,0,0,1,5.4-1.08A11.83,11.83,0,0,1,128.59,15a11.66,11.66,0,0,1,4,3.21,14.62,14.62,0,0,1,2.5,4.88,21.08,21.08,0,0,1,.86,6.11,19.35,19.35,0,0,1-1,6.4,13.61,13.61,0,0,1-8,8.34,17.42,17.42,0,0,1-6.68,1.2,26.92,26.92,0,0,1-10.36-2Z"/><path class="cls-1" d="M154.43,17a7.82,7.82,0,0,0-3.74.87,8.86,8.86,0,0,0-2.75,2.29,10.34,10.34,0,0,0-1.72,3.19,12.73,12.73,0,0,0-.68,3.66h16.37a11,11,0,0,0-1.47-7.16q-1.86-2.85-6-2.85m.19-3.22a12.39,12.39,0,0,1,5.15,1,9.82,9.82,0,0,1,3.55,2.68,10.77,10.77,0,0,1,2,4,17.66,17.66,0,0,1,.64,4.85,24,24,0,0,1-.38,4.15H145.54c.05,3.68.94,6.48,2.69,8.4s4.37,2.88,7.86,2.88a20.6,20.6,0,0,0,4.73-.54c.78-.18,1.51-.39,2.21-.62a1.83,1.83,0,0,1,2.41,1.3l.24,1.08a21.63,21.63,0,0,1-4.63,1.57,23.87,23.87,0,0,1-5.41.61,15.66,15.66,0,0,1-6.36-1.2,12.25,12.25,0,0,1-4.5-3.3,14.09,14.09,0,0,1-2.69-5,20.39,20.39,0,0,1-.89-6.14,20.52,20.52,0,0,1,.92-6.27,15.08,15.08,0,0,1,2.66-5A11.81,11.81,0,0,1,149,15a13,13,0,0,1,5.62-1.17"/><path class="cls-1" d="M173,44.47v-30h2.17A1.85,1.85,0,0,1,177,16.26v2.51a12.92,12.92,0,0,1,4.38-3.68,12.39,12.39,0,0,1,5.72-1.3A9.24,9.24,0,0,1,192,15a10.11,10.11,0,0,1,3.33,3.21,14.6,14.6,0,0,1,1.92,4.7,25.64,25.64,0,0,1,.6,5.63V44.47h-4.28V28.85a26.53,26.53,0,0,0-.38-4.63,11.23,11.23,0,0,0-1.28-3.65,6.5,6.5,0,0,0-2.37-2.4,7.23,7.23,0,0,0-3.64-.85A8.9,8.9,0,0,0,181,18.74,15.31,15.31,0,0,0,177.28,22V44.47Z"/><rect class="cls-2" x="29.56" y="0.06" width="18.76" height="18.49"/><path class="cls-2" d="M20.12,27.84V.37A23.59,23.59,0,0,0,0,23.66V45H24.05a24.2,24.2,0,0,0,23.33-17.2Z"/><path class="cls-1" d="M218.16,14.45a9.73,9.73,0,0,1,1.9.17,6.18,6.18,0,0,1,1.64.52l-.27,1.3a10.45,10.45,0,0,0-1.59-.48,7.81,7.81,0,0,0-1.66-.18,4.66,4.66,0,0,0-3.48,1.29,5,5,0,0,0-1.26,3.65,4.83,4.83,0,0,0,1.19,3.5,4.82,4.82,0,0,0,3.58,1.21,7.5,7.5,0,0,0,1.15-.08,6.89,6.89,0,0,0,1-.2V21.28h1.49v4.78a7.33,7.33,0,0,1-1.72.48,11.47,11.47,0,0,1-2.1.19,7.38,7.38,0,0,1-2.62-.43,5.45,5.45,0,0,1-2-1.23,5.31,5.31,0,0,1-1.22-1.9,6.79,6.79,0,0,1-.42-2.44,7.17,7.17,0,0,1,.44-2.54,5.57,5.57,0,0,1,1.25-2,5.75,5.75,0,0,1,2-1.29A7.19,7.19,0,0,1,218.16,14.45Z"/><path class="cls-1" d="M226.15,26.52h-1.64V14.66h3.08a7.2,7.2,0,0,1,1.79.21,4.69,4.69,0,0,1,1.45.64,3,3,0,0,1,1,1,2.86,2.86,0,0,1,.36,1.45,3.15,3.15,0,0,1-.79,2.14,4.53,4.53,0,0,1-2.22,1.31l4.19,5.06h-2l-3.86-4.77h-1.32ZM230.53,18a1.84,1.84,0,0,0-.24-.95,1.81,1.81,0,0,0-.65-.64,3.28,3.28,0,0,0-.94-.36,5.83,5.83,0,0,0-1.12-.11h-1.43v4.47H227a6.85,6.85,0,0,0,1.4-.14,4,4,0,0,0,1.13-.44,2.37,2.37,0,0,0,.76-.75A2.06,2.06,0,0,0,230.53,18Z"/><path class="cls-1" d="M242.41,14.66h1.64v7.66a4.74,4.74,0,0,1-.31,1.73,4,4,0,0,1-.89,1.41,3.94,3.94,0,0,1-1.45.93,6.05,6.05,0,0,1-4,0,4.06,4.06,0,0,1-1.46-.93,4.13,4.13,0,0,1-.89-1.41,5,5,0,0,1-.3-1.73V14.66h1.64v7.73a3.09,3.09,0,0,0,.76,2.17,3.43,3.43,0,0,0,4.5,0,3.09,3.09,0,0,0,.76-2.17Z"/><path class="cls-1" d="M254.23,18.13a3.13,3.13,0,0,1-.37,1.54,3.44,3.44,0,0,1-1.05,1.17,5,5,0,0,1-1.57.74,7.25,7.25,0,0,1-2,.26h-.82v4.68h-1.64V14.66h2.87a7.26,7.26,0,0,1,1.79.21,4.52,4.52,0,0,1,1.44.65,3.22,3.22,0,0,1,1,1.09A3.19,3.19,0,0,1,254.23,18.13Zm-1.64,0a2,2,0,0,0-.23-1,1.81,1.81,0,0,0-.63-.66,2.91,2.91,0,0,0-.95-.38,6,6,0,0,0-1.14-.11h-1.18v4.54h.87a5.34,5.34,0,0,0,1.31-.16,3.37,3.37,0,0,0,1-.47,2.09,2.09,0,0,0,.92-1.77Z"/><path class="cls-1" d="M261.12,26.73a5.71,5.71,0,0,1-2.47-.5,5.23,5.23,0,0,1-1.82-1.33,5.65,5.65,0,0,1-1.11-2,7.28,7.28,0,0,1,0-4.7,5.65,5.65,0,0,1,1.11-2A5.23,5.23,0,0,1,258.65,15a6.35,6.35,0,0,1,4.94,0,5.14,5.14,0,0,1,1.82,1.33,5.65,5.65,0,0,1,1.11,2,7.28,7.28,0,0,1,0,4.7,5.65,5.65,0,0,1-1.11,2,5.14,5.14,0,0,1-1.82,1.33A5.71,5.71,0,0,1,261.12,26.73Zm0-1.32a4.11,4.11,0,0,0,1.8-.37,3.65,3.65,0,0,0,1.3-1,4.75,4.75,0,0,0,.78-1.54,6.68,6.68,0,0,0,0-3.76,4.6,4.6,0,0,0-.78-1.53,3.76,3.76,0,0,0-1.3-1,4.35,4.35,0,0,0-3.6,0,3.76,3.76,0,0,0-1.3,1,4.6,4.6,0,0,0-.78,1.53,6.68,6.68,0,0,0,0,3.76A4.75,4.75,0,0,0,258,24a3.65,3.65,0,0,0,1.3,1A4.11,4.11,0,0,0,261.12,25.41Z"/><path class="cls-1" d="M214.19,44.32h-1.64V32.47h1.64Z"/><path class="cls-1" d="M225.33,44.32,218.69,35v9.31h-1.57V32.47h1.57l6.64,9.31V32.47h1.57V44.32Z"/><path class="cls-1" d="M239.91,32.47h1.48l.86,11.85h-1.57l-.57-9.24-3.42,7.11H235l-3.42-7.11L231,44.32h-1.57l.86-11.85h1.48l4,8.38Z"/><path class="cls-1" d="M250,44.54a5.89,5.89,0,0,1-2.47-.5,5.26,5.26,0,0,1-1.82-1.34,5.94,5.94,0,0,1-1.11-2,7.49,7.49,0,0,1,0-4.71,5.94,5.94,0,0,1,1.11-1.95,5.26,5.26,0,0,1,1.82-1.34,6.38,6.38,0,0,1,4.95,0,5.35,5.35,0,0,1,1.82,1.34A5.94,5.94,0,0,1,255.38,36a7.49,7.49,0,0,1,0,4.71,5.94,5.94,0,0,1-1.11,2A5.35,5.35,0,0,1,252.45,44,5.94,5.94,0,0,1,250,44.54Zm0-1.32a4.11,4.11,0,0,0,1.8-.37,3.59,3.59,0,0,0,1.3-1,4.58,4.58,0,0,0,.79-1.54,6.89,6.89,0,0,0,0-3.75,4.44,4.44,0,0,0-.79-1.53,3.7,3.7,0,0,0-1.3-1,4.43,4.43,0,0,0-3.59,0,3.61,3.61,0,0,0-1.3,1,4.44,4.44,0,0,0-.79,1.53,6.89,6.89,0,0,0,0,3.75,4.58,4.58,0,0,0,.79,1.54,3.51,3.51,0,0,0,1.3,1A4.09,4.09,0,0,0,250,43.22Z"/><path class="cls-1" d="M265.94,41a2.8,2.8,0,0,1-.33,1.34,3.23,3.23,0,0,1-.93,1.06,4.68,4.68,0,0,1-1.46.67,6.86,6.86,0,0,1-1.88.24H258V32.47h3.67a5.53,5.53,0,0,1,1.57.2,3.7,3.7,0,0,1,1.23.59,2.71,2.71,0,0,1,.78.91,2.6,2.6,0,0,1,.28,1.18,2.38,2.38,0,0,1-.69,1.73,4.3,4.3,0,0,1-1.76,1.06,4.11,4.11,0,0,1,2.1,1A2.45,2.45,0,0,1,265.94,41Zm-4.87-3.45a4.54,4.54,0,0,0,1.13-.14,2.87,2.87,0,0,0,.9-.41,1.89,1.89,0,0,0,.6-.63,1.71,1.71,0,0,0,.22-.85,1.48,1.48,0,0,0-.67-1.32,3.08,3.08,0,0,0-1.74-.44h-2v3.79ZM264.38,41a1.77,1.77,0,0,0-.25-.93,2,2,0,0,0-.68-.66,3.59,3.59,0,0,0-1-.38,5.94,5.94,0,0,0-1.22-.12h-1.68V43h1.9a3.82,3.82,0,0,0,2.13-.52A1.73,1.73,0,0,0,264.38,41Z"/><path class="cls-1" d="M269.84,44.32h-1.63V32.47h1.63Z"/><path class="cls-1" d="M274.42,32.47V43h4.95v1.33h-6.59V32.47Z"/><path class="cls-1" d="M282.91,44.32h-1.64V32.47h1.64Z"/><path class="cls-1" d="M296,44.32h-1.67l-1.09-2.86h-5.53l-1.07,2.86h-1.68l4.72-11.85h1.61Zm-7.79-4.18h4.55L290.44,34Z"/><path class="cls-1" d="M299.52,44.32h-1.63V32.47H301a7.32,7.32,0,0,1,1.79.21,4.65,4.65,0,0,1,1.45.63,3.17,3.17,0,0,1,1,1,3,3,0,0,1,.35,1.45,3.15,3.15,0,0,1-.79,2.14,4.54,4.54,0,0,1-2.22,1.32l4.19,5h-2l-3.87-4.77h-1.32Zm4.39-8.47a1.7,1.7,0,0,0-.25-1,1.74,1.74,0,0,0-.65-.64,2.92,2.92,0,0,0-.94-.36,5.13,5.13,0,0,0-1.12-.12h-1.43v4.47h.82a6.21,6.21,0,0,0,1.4-.14,3.46,3.46,0,0,0,1.13-.44,2.24,2.24,0,0,0,.76-.74A2.12,2.12,0,0,0,303.91,35.85Z"/><path class="cls-1" d="M310,44.32h-1.64V32.47H310Z"/><path class="cls-1" d="M318.11,44.54a5.89,5.89,0,0,1-2.47-.5,5.26,5.26,0,0,1-1.82-1.34,5.6,5.6,0,0,1-1.11-2,7.49,7.49,0,0,1,0-4.71,5.6,5.6,0,0,1,1.11-1.95,5.26,5.26,0,0,1,1.82-1.34,6.38,6.38,0,0,1,4.95,0,5.22,5.22,0,0,1,1.81,1.34A5.79,5.79,0,0,1,323.52,36a7.49,7.49,0,0,1,0,4.71,5.79,5.79,0,0,1-1.12,2A5.22,5.22,0,0,1,320.59,44,5.94,5.94,0,0,1,318.11,44.54Zm0-1.32a4.11,4.11,0,0,0,1.8-.37,3.59,3.59,0,0,0,1.3-1,4.57,4.57,0,0,0,.78-1.54,6.65,6.65,0,0,0,0-3.75,4.42,4.42,0,0,0-.78-1.53,3.7,3.7,0,0,0-1.3-1,4.11,4.11,0,0,0-1.8-.38,4.17,4.17,0,0,0-1.8.38,3.79,3.79,0,0,0-1.3,1,4.6,4.6,0,0,0-.78,1.53,6.65,6.65,0,0,0,0,3.75,4.75,4.75,0,0,0,.78,1.54,3.68,3.68,0,0,0,1.3,1A4.17,4.17,0,0,0,318.11,43.22Z"/></svg>