<svg id="Capa_1" data-name="Capa 1" xmlns="http://www.w3.org/2000/svg" viewBox="0 0 30 30"><defs><style>.cls-1{fill:#7d7d7d;}</style></defs><title>icono-contacto</title><path class="cls-1" d="M15,30a14.9,14.9,0,0,1-7.48-2L1.67,30l1.21-6.19A14.77,14.77,0,0,1,0,15,15,15,0,1,1,15,30ZM7.79,25.53l.45.29a12.78,12.78,0,1,0-3.3-3l.32.4L4.6,26.63Z"/><path class="cls-1" d="M7.43,9.24S8.31,7.7,9,7.61s1.65-.09,1.9.38,1.36,3.2,1.36,3.2a1.05,1.05,0,0,1-.11.92,9.13,9.13,0,0,1-.95,1.11.83.83,0,0,0,0,1,18.5,18.5,0,0,0,2.11,2.59,11.68,11.68,0,0,0,3.43,2,.72.72,0,0,0,.53-.16c.2-.21,1.32-1.6,1.32-1.6a.78.78,0,0,1,.95-.19c.59.27,3.16,1.55,3.16,1.55A.56.56,0,0,1,23,19a3.69,3.69,0,0,1-.56,1.94,4.49,4.49,0,0,1-3.13,1.53A13.83,13.83,0,0,1,11.66,19c-2.09-2.1-3.95-4.22-4.39-6.16S6.89,10,7.43,9.24Z"/></svg>