<svg id="Capa_1" data-name="Capa 1" xmlns="http://www.w3.org/2000/svg" viewBox="0 0 71.33 58.4"><defs><style>.cls-1{fill:#948a69;}</style></defs><title>icono-proyecto</title><path class="cls-1" d="M33.67,55.92a16.65,16.65,0,0,1,6.76,1.41,8.06,8.06,0,0,0,5.12.49,8.17,8.17,0,0,0,6.34-7.42,8.05,8.05,0,0,0-1.27-5l-5.93-9.26a13.08,13.08,0,0,0-22,0l-5.94,9.26a8.19,8.19,0,0,0,5.07,12.4,8.05,8.05,0,0,0,5.12-.49l.11,0A16.78,16.78,0,0,1,33.67,55.92Zm-7.84-1.07-.07,0a5.48,5.48,0,0,1-6.75-8L25,37.63a10.36,10.36,0,0,1,17.46,0l5.93,9.25a5.48,5.48,0,0,1-4.6,8.44,5.53,5.53,0,0,1-2.22-.47,19.58,19.58,0,0,0-15.69,0Z"/><path class="cls-1" d="M21.66,31.93a8.35,8.35,0,0,0-3.78-9.84,6.54,6.54,0,0,0-3.14-.82,6,6,0,0,0-2.14.39c-3.42,1.32-5,5.56-3.48,9.45a7.55,7.55,0,0,0,6.79,5.07,5.66,5.66,0,0,0,2.12-.4A6.2,6.2,0,0,0,21.66,31.93ZM19.11,31a3.61,3.61,0,0,1-2.05,2.23,3.28,3.28,0,0,1-1.17.21,4.85,4.85,0,0,1-4.25-3.33c-1-2.5-.09-5.17,1.93-5.95a3.58,3.58,0,0,1,3,.28A5.65,5.65,0,0,1,19.11,31Z"/><path class="cls-1" d="M29.64,10.69c-4.3,0-7.79,4-7.79,8.92s3.49,8.91,7.79,8.91,7.78-4,7.78-8.91S33.93,10.69,29.64,10.69Zm0,15.12c-2.81,0-5.08-2.79-5.08-6.2s2.27-6.21,5.08-6.21,5.08,2.79,5.08,6.21S32.44,25.81,29.64,25.81Z"/><path class="cls-1" d="M52.81,19.28A6.45,6.45,0,0,0,46.72,15a6.94,6.94,0,0,0-3.62,1.05,8.71,8.71,0,0,0-3.7,4.75c-1.42,4.25.46,8.72,4.18,10a6.32,6.32,0,0,0,2,.33,8.12,8.12,0,0,0,7.35-5.8A8.7,8.7,0,0,0,52.81,19.28Zm-2.44,5.17A6.16,6.16,0,0,1,48,27.67a4.4,4.4,0,0,1-2.33.73,3.87,3.87,0,0,1-1.17-.19A4,4,0,0,1,42,25.69a6.33,6.33,0,0,1,2.52-7.32,3.85,3.85,0,0,1,5.8,1.92A6,6,0,0,1,50.37,24.45Z"/><path class="cls-1" d="M60.3,30.15l-.08-.06A6.06,6.06,0,0,0,56.67,29a7.83,7.83,0,0,0-6.21,3.3c-2.48,3.35-2.11,7.85.83,10a6.1,6.1,0,0,0,3.63,1.17,7.89,7.89,0,0,0,6.22-3.3C63.62,36.83,63.24,32.32,60.3,30.15ZM59,38.57a5.22,5.22,0,0,1-4,2.21,3.33,3.33,0,0,1-2-.65C51.16,38.84,51,36,52.63,33.89a5.19,5.19,0,0,1,4-2.21,3.44,3.44,0,0,1,2,.64C60.43,33.62,60.55,36.42,59,38.57Z"/></svg>