<svg id="Capa_1" data-name="Capa 1" xmlns="http://www.w3.org/2000/svg" viewBox="0 0 71.33 58.4"><defs><style>.cls-1{fill:#8f8667;}</style></defs><title>icono-proyecto</title><path class="cls-1" d="M40,11.17H22.61a1,1,0,0,0-1,1V22.6a1,1,0,0,0,1,1H40a1,1,0,0,0,1-1V12.16A1,1,0,0,0,40,11.17ZM23.61,21.61V13.16H39v8.45Z"/><path class="cls-1" d="M37.88,27a1,1,0,0,0-1.05.07l-12.19,8.7a1,1,0,0,0-.4.64,1,1,0,0,0,1,1.16h3l-3.89,7.23a1,1,0,0,0,.87,1.47A1,1,0,0,0,25.8,46L38,37.34a1,1,0,0,0-.58-1.81h-3l3.9-7.23A1,1,0,0,0,37.88,27ZM30.78,37a1,1,0,0,0-.87-1.47H28.33l6.17-4.41-2.66,4.93a1,1,0,0,0,.41,1.35.94.94,0,0,0,.47.12H34.3l-6.17,4.41Z"/><path class="cls-1" d="M56.54,10.3H55.8V6.94a1,1,0,0,0-2,0V10.3H52.32V6.94a1,1,0,0,0-2,0V10.3h-.75a1,1,0,0,0-1,1v5.23a4.5,4.5,0,0,0,3.48,4.36V46.1a1.18,1.18,0,0,1-2.36,0V26.65a3.18,3.18,0,0,0-2-2.93l-2.39-.93V10.43A4.49,4.49,0,0,0,40.88,6H21.74a4.48,4.48,0,0,0-4.47,4.48V51.19H14.78a1,1,0,0,0-1,1v5.22a1,1,0,0,0,1,1H47.84a1,1,0,0,0,1-1V52.19a1,1,0,0,0-1-1H45.36V24.93l1.64.64a1.16,1.16,0,0,1,.72,1.08V46.1a3.17,3.17,0,1,0,6.34,0V20.88a4.5,4.5,0,0,0,3.48-4.36V11.29A1,1,0,0,0,56.54,10.3Zm-1,2v4.23a2.49,2.49,0,0,1-5,0V12.29ZM19.26,51.19V10.43a2.49,2.49,0,0,1,2.48-2.49H40.88a2.5,2.5,0,0,1,2.49,2.49V51.19Zm-3.48,5.22V53.18H46.85v3.23Z"/></svg>