<svg id="Capa_1" data-name="Capa 1" xmlns="http://www.w3.org/2000/svg" viewBox="0 0 76.25 58.4"><defs><style>.cls-1{fill:#948a69;}</style></defs><title>icono-proyecto</title><path class="cls-1" d="M74.25,34.85a15.91,15.91,0,0,0-14.07-8.43,15.62,15.62,0,0,0-5.2.89L49.8,15.39h7.32V12.94H47.93a1.23,1.23,0,0,0-1.23,1.23,1.24,1.24,0,0,0,.11.49l2.45,5.63H28.73L27.29,15.8l4.13-1.37a2.65,2.65,0,0,0-.84-5.16h-9.1a3,3,0,0,0-2.09,5l.7.7A5.38,5.38,0,0,0,25,16.52l1.32,4.11a1.48,1.48,0,0,0-.25.31l-3.6,6.8a15.93,15.93,0,1,0,8.24,21c.15-.35.29-.7.42-1.06a4.89,4.89,0,0,0,4.35,3.25l.92,2.76a1.25,1.25,0,0,0,1.14.84l4.28.1.06-2.45-3.43-.08-.56-1.68a4.84,4.84,0,0,0,2.25-6.46,5.16,5.16,0,0,0-.66-1l12.27-17,1,2.36a15.91,15.91,0,1,0,21.52,6.56ZM24.92,14a3.06,3.06,0,0,1-3.1-.73l-.7-.7a.5.5,0,0,1,.36-.86h9.1a.19.19,0,0,1,.2.19.2.2,0,0,1-.14.19ZM16.08,55.82a13.48,13.48,0,1,1,5.19-25.91L15,41.77a1.24,1.24,0,0,0,.51,1.66,1.12,1.12,0,0,0,.35.12L29,46A13.49,13.49,0,0,1,16.08,55.82Zm13.41-12.2L17.94,41.45l5.49-10.38a13.49,13.49,0,0,1,6.12,11.28C29.55,42.77,29.53,43.2,29.49,43.62ZM32,42.84c0-.16,0-.33,0-.49A15.92,15.92,0,0,0,24.58,28.9l2.7-5.1,5.79,18.09A4.72,4.72,0,0,0,32,42.84Zm5.85,4.35a2.39,2.39,0,0,1-.77.84l-.83-2.5-2.33.78.62,1.86a2.44,2.44,0,1,1,3.31-1Zm-.37-5.72a4.74,4.74,0,0,0-1.78-.35l-.27,0L29.52,22.74h20.8l.25.57Zm27,13.67a13.77,13.77,0,0,1-4.27.68,13.47,13.47,0,0,1-6.47-25.29l3.74,8.61a4.4,4.4,0,0,0-1.64,3.41,4.45,4.45,0,1,0,4.45-4.44,5.32,5.32,0,0,0-.56.06L56,29.55a13.48,13.48,0,0,1,8.49,25.59ZM58.4,41.31l.66,1.53,2.25-1-.66-1.5a2.23,2.23,0,1,1-2.25,1Z"/></svg>