<svg id="Capa_1" data-name="Capa 1" xmlns="http://www.w3.org/2000/svg" viewBox="0 0 30 30"><defs><style>.cls-1{fill:#7d7d7d;}</style></defs><title>icono-contacto</title><path class="cls-1" d="M25.6,4.39A15,15,0,0,0,4.4,25.61,15,15,0,0,0,25.6,4.39Zm2,10.61A12.57,12.57,0,0,1,6.11,23.89,12.57,12.57,0,0,1,15,2.43a12.46,12.46,0,0,1,8.88,3.68h0A12.51,12.51,0,0,1,27.57,15Z"/><path class="cls-1" d="M22.42,13.78H16.21V5.51a1.21,1.21,0,1,0-2.42,0V15l0,.45.15.2a1.23,1.23,0,0,0,1,.57h7.4a1.22,1.22,0,0,0,0-2.44Z"/></svg>