<svg id="Capa_1" data-name="Capa 1" xmlns="http://www.w3.org/2000/svg" viewBox="0 0 71.33 58.4"><defs><style>.cls-1{fill:#918768;}</style></defs><title>icono-proyecto</title><path class="cls-1" d="M30.67,16.21H8.23a1.12,1.12,0,0,0,0,2.23H30.67a1.12,1.12,0,1,0,0-2.23Z"/><path class="cls-1" d="M30.67,22.67H8.23a1.11,1.11,0,0,0,0,2.22H30.67a1.11,1.11,0,1,0,0-2.22Z"/><path class="cls-1" d="M13.22,39.55a3.37,3.37,0,1,0,3.37,3.36A3.37,3.37,0,0,0,13.22,39.55Zm0,2.22a1.15,1.15,0,1,1-1.14,1.14A1.14,1.14,0,0,1,13.22,41.77Z"/><path class="cls-1" d="M63.09,16.21H40.65a1.12,1.12,0,0,0,0,2.23H63.09a1.12,1.12,0,0,0,0-2.23Z"/><path class="cls-1" d="M63.09,22.67H40.65a1.11,1.11,0,0,0,0,2.22H63.09a1.11,1.11,0,0,0,0-2.22Z"/><path class="cls-1" d="M45.64,39.55A3.37,3.37,0,1,0,49,42.91,3.37,3.37,0,0,0,45.64,39.55Zm1.14,3.36a1.15,1.15,0,1,1-1.14-1.14A1.15,1.15,0,0,1,46.78,42.91Z"/><path class="cls-1" d="M69.19,52.21V8a1.12,1.12,0,0,0-1.11-1.12H3.25A1.12,1.12,0,0,0,2.13,8V52.21H0V58.4H71.33V52.21Zm-64.83-.4V9.15H34.55V51.81Zm32.41,0V9.15H67V51.81ZM2,56.39V54.23h67.3v2.16Z"/></svg>