<svg id="Capa_1" data-name="Capa 1" xmlns="http://www.w3.org/2000/svg" viewBox="0 0 71.33 58.4"><defs><style>.cls-1{fill:#948a69;}</style></defs><title>icono-proyecto</title><g id="Clocks"><path id="Clocks-2" data-name="Clocks" class="cls-1" d="M70.26,31.79a3.74,3.74,0,0,0-2.86-1.4h-.31a1.3,1.3,0,0,1-1.31-1.31h0a4.42,4.42,0,0,0-4.56-4.26h-.83a1.31,1.31,0,0,1-1.31-1.31V22.4a4.23,4.23,0,0,0-1.32-3,4.74,4.74,0,0,0-6.27,0,4.24,4.24,0,0,0-1.33,3v10a1.31,1.31,0,0,1-1.31,1.31H22.47a1.31,1.31,0,0,1-1.31-1.31v-10a4.2,4.2,0,0,0-1.33-3,4.73,4.73,0,0,0-6.26,0,4.2,4.2,0,0,0-1.33,3v1.11a1.31,1.31,0,0,1-1.31,1.31H9.84a4.41,4.41,0,0,0-3,1.14,4,4,0,0,0-1.29,2.88v.24a1.31,1.31,0,0,1-1.31,1.31h-.3A3.77,3.77,0,0,0,1.06,31.8,4.92,4.92,0,0,0,0,34.93v6.54a4.87,4.87,0,0,0,1.1,3.13A3.74,3.74,0,0,0,3.94,46h.3a1.31,1.31,0,0,1,1.31,1.31v.24a4,4,0,0,0,1.29,2.88,4.41,4.41,0,0,0,3,1.14h1.09a1.31,1.31,0,0,1,1.31,1.31V54a4.2,4.2,0,0,0,1.33,3,4.6,4.6,0,0,0,6.26,0,4.2,4.2,0,0,0,1.33-3V44a1.31,1.31,0,0,1,1.31-1.31H48.85A1.31,1.31,0,0,1,50.16,44V54a4.24,4.24,0,0,0,1.33,3,4.61,4.61,0,0,0,6.27,0,4.23,4.23,0,0,0,1.32-3V52.89a1.31,1.31,0,0,1,1.31-1.31h.83a4.42,4.42,0,0,0,4.56-4.26h0A1.3,1.3,0,0,1,67.09,46h.31a3.74,3.74,0,0,0,2.86-1.4,4.87,4.87,0,0,0,1.1-3.13V34.92A4.93,4.93,0,0,0,70.26,31.79Zm-66.32,12a1.53,1.53,0,0,1-1.16-.61,2.67,2.67,0,0,1-.58-1.7V34.93a2.67,2.67,0,0,1,.58-1.7,1.53,1.53,0,0,1,1.16-.61h.3a1.31,1.31,0,0,1,1.31,1.31v8.54a1.31,1.31,0,0,1-1.31,1.31Zm5.9,5.57a2.18,2.18,0,0,1-1.49-.56,1.64,1.64,0,0,1-.57-1.23V28.84a1.64,1.64,0,0,1,.57-1.23,2.2,2.2,0,0,1,1.49-.56h1.09a1.31,1.31,0,0,1,1.31,1.31V48a1.31,1.31,0,0,1-1.31,1.31ZM18.93,54a1.91,1.91,0,0,1-.63,1.42,2.46,2.46,0,0,1-3.2,0A1.93,1.93,0,0,1,14.47,54V22.4A1.91,1.91,0,0,1,15.1,21a2.35,2.35,0,0,1,3.2,0,1.93,1.93,0,0,1,.63,1.42V54Zm2.23-14.88V37.28A1.31,1.31,0,0,1,22.47,36H48.85a1.31,1.31,0,0,1,1.31,1.31v1.84a1.31,1.31,0,0,1-1.31,1.31H22.47A1.31,1.31,0,0,1,21.16,39.12ZM56.85,54a1.91,1.91,0,0,1-.63,1.42,2.46,2.46,0,0,1-3.2,0A2,2,0,0,1,52.39,54V22.4A2,2,0,0,1,53,21a2.37,2.37,0,0,1,3.2,0,1.93,1.93,0,0,1,.63,1.42V54Zm6.7-6.68a2.2,2.2,0,0,1-2.33,2h-.83A1.31,1.31,0,0,1,59.08,48V28.36a1.31,1.31,0,0,1,1.31-1.31h.83a2.2,2.2,0,0,1,2.33,2V47.32Zm5.57-5.84a2.72,2.72,0,0,1-.57,1.7,1.53,1.53,0,0,1-1.15.6h-.31a1.31,1.31,0,0,1-1.31-1.31V33.93a1.31,1.31,0,0,1,1.31-1.31h.31a1.53,1.53,0,0,1,1.15.6,2.72,2.72,0,0,1,.57,1.7Z"/></g></svg>