<svg id="Capa_1" data-name="Capa 1" xmlns="http://www.w3.org/2000/svg" viewBox="0 0 71.33 58.4"><defs><style>.cls-1{fill:#948a69;}</style></defs><title>icono-proyecto</title><path class="cls-1" d="M21.69,42.74A14.08,14.08,0,0,0,35.55,54.55a14.84,14.84,0,0,0,2.29-.19A14.08,14.08,0,0,0,49.47,38.21a14.08,14.08,0,0,0-28,2.35,14.84,14.84,0,0,0,.16,2A.57.57,0,0,0,21.69,42.74Zm9.38-3.13c1.86,0,3.11.92,4.57,2,1.66,1.22,3.54,2.61,6.59,2.61h0a9.79,9.79,0,0,0,5.33-1.59,12.09,12.09,0,0,1-23.8.14A9.14,9.14,0,0,1,31.07,39.61Zm11.16,2.54c-2.37,0-3.83-1.08-5.39-2.22s-3.22-2.38-5.76-2.38h-.4a11.3,11.3,0,0,0-7.1,2.52A12.1,12.1,0,0,1,35.66,28.46h0A12.06,12.06,0,0,1,47.75,39.89,7.91,7.91,0,0,1,42.23,42.15Z"/><path class="cls-1" d="M58,6.7H13.34a1,1,0,0,0-1,1V57.62a1,1,0,0,0,1,1H58a1,1,0,0,0,1-1V7.73A1,1,0,0,0,58,6.7ZM57,22.55v34H14.38v-34ZM57,8.76V20.48H14.38V8.76Z"/><path class="cls-1" d="M26.21,16.52A2.52,2.52,0,1,0,23.7,14,2.52,2.52,0,0,0,26.21,16.52ZM25.47,14a.74.74,0,1,1,.74.74A.74.74,0,0,1,25.47,14Z"/><path class="cls-1" d="M19.71,16.52A2.52,2.52,0,1,0,17.2,14,2.51,2.51,0,0,0,19.71,16.52ZM19,14a.74.74,0,1,1,.74.74A.74.74,0,0,1,19,14Z"/></svg>