<svg id="Capa_1" data-name="Capa 1" xmlns="http://www.w3.org/2000/svg" viewBox="0 0 372.12 413.01"><defs><style>.cls-1{fill:#53565a;opacity:0.9;}.cls-2{fill:#89836c;}.cls-3{fill:#fff;}</style></defs><title>logo-matte</title><rect class="cls-1" width="372.12" height="351.98"/><polygon class="cls-2" points="305.45 218.39 305.45 291.35 58.84 291.35 58.84 44.74 305.45 44.74 305.45 117.7 308.05 117.7 308.05 42.14 56.24 42.14 56.24 293.95 308.05 293.95 308.05 218.39 305.45 218.39"/><path class="cls-3" d="M93.68,316.85c2.5,0,3.93,1.23,3.93,3.38s-1.43,3.54-3.93,3.54H91.41v3H89.73v-9.91Zm-2.27,5.42h2.2c1.53,0,2.4-.65,2.4-2s-.87-1.93-2.4-1.93h-2.2Z"/><path class="cls-3" d="M112.23,323.76h-2.8v3h-1.67v-9.91h4c2.53,0,4,1.23,4,3.38a3.19,3.19,0,0,1-2,3.22l2.22,3.31H114Zm-.45-1.49c1.53,0,2.4-.65,2.4-2s-.87-1.93-2.4-1.93h-2.35v3.92Z"/><path class="cls-3" d="M136.17,321.81a5.26,5.26,0,1,1-5.25-5A5.07,5.07,0,0,1,136.17,321.81Zm-8.81,0a3.55,3.55,0,0,0,7.1,0,3.55,3.55,0,0,0-7.1,0Z"/><path class="cls-3" d="M149,326.76l-3.95-9.91h1.8l3.05,8.06,3.09-8.06h1.74l-4,9.91Z"/><path class="cls-3" d="M164.57,326.76v-9.91h1.67v9.91Z"/><path class="cls-3" d="M181.4,316.85a5,5,0,1,1,0,9.91h-4v-9.91ZM179,325.26h2.44a3.32,3.32,0,0,0,3.39-3.44,3.38,3.38,0,0,0-3.47-3.47H179Z"/><path class="cls-3" d="M198.48,318.35V321h4.84v1.5h-4.84v2.73h5.57v1.5h-7.24v-9.91h7.08v1.5Z"/><path class="cls-3" d="M221.54,326.76l-5.28-7.11v7.11h-1.67v-9.91h1.64l5.31,7.12v-7.12h1.64v9.91Z"/><path class="cls-3" d="M242.45,318.34l-1,1.21a3.89,3.89,0,0,0-2.76-1.26,3.49,3.49,0,1,0,0,7,4.1,4.1,0,0,0,2.76-1.17l1,1.1a5.61,5.61,0,0,1-3.83,1.63,5,5,0,1,1,.05-10A5.47,5.47,0,0,1,242.45,318.34Z"/><path class="cls-3" d="M252.66,326.76v-9.91h1.67v9.91Z"/><path class="cls-3" d="M266.83,324.52l-.95,2.24h-1.74l4.37-9.91h1.72l4.33,9.91h-1.79l-.94-2.24Zm2.49-5.89L267.45,323h3.74Z"/><path class="cls-3" d="M346.74,166c-7.68-.25-15-.22-21.35-.14h-5q-15.44,0-43.74.66H276L283.67,147v-1.23a3.56,3.56,0,0,1-1.72-.65,4.26,4.26,0,0,0-2.38.65c-1,1-5,9.4-9.54,19.79-.52,1-1.16,1.47-5.81,1.47h-13.7q0-1.47,7.79-16.58v-2.38a5,5,0,0,1-1.89-.57h-1.06q-2.62,0-10.75,20.19H232.79c-2,0-3.12.57-3.45,1.72l.49,1.72q9-.48,12.48-.49h.57q-3.69,9.09-6.24,15.84h-.27a166.29,166.29,0,0,1-16.66,10.75h-.49q0-5.09,7.06-21.33v-.58c0-.66-.38-1.07-1.15-1.23h-1.81q-.9,0-5.33,5.42a18.22,18.22,0,0,1-4.19-.66,12.63,12.63,0,0,0-5.91,1.72Q199,186.18,199,193.06v1.72c.33,1.21,1.53,1.81,3.61,1.81h1.23q5.41,0,10.59-7.14H215v.65a13.86,13.86,0,0,0-1.24,6.49v.65q0,3.45,3.62,3.45h1.8q5.33,0,15-7.58-3.18,9.09-3.18,11.77c.28,2,.85,3,1.73,3H237q5.17,0,25.36-23.06L246,223.86l0,.11c.39,1.61,1.43,1.91,3.06,1.8a4.59,4.59,0,0,0,2-.72q9.76-23.1,23.68-55.63,36-.54,57.94-.64l5,.21a1.52,1.52,0,0,0,1.72,1.73,58.94,58.94,0,0,0,9.52-1.15v-3A7,7,0,0,1,346.74,166ZM204.94,192.4h-.49v-.57q2.46-6.41,7.06-8.87h1.23l1.06.58Q213.8,184.94,204.94,192.4Zm62.24-21.75a223.94,223.94,0,0,1-30.21,33h-.57q3.53-13.22,11.82-31.27,0-2.38,10.67-2.38h8.29Z"/><path class="cls-3" d="M296.68,187.23h-1.89Q282.47,198,275.34,198.48h-.58c0-1.26,1-4,3-8.29q13-3.78,13-7,0-3.69-4.85-4.19h-1.06l-4.19,1.24q-7.64,8.2-8.86,8.2v1.15l.57,1.23q-3,3.94-2.95,7.14,0,3.45,4.18,3.45h3.45q8.87,0,20.68-11.82v-1.15A1.12,1.12,0,0,0,296.68,187.23Zm-11.25-4.68L283,184.93h-.49C282.64,184.11,283.63,183.32,285.43,182.55Z"/><path class="cls-3" d="M180,221.54a2.62,2.62,0,0,1-.49-1h0c-.22.09-.66,0-.71-.73a4.51,4.51,0,0,1,.32-1.36q8.63-22,21.48-49.31,34.8-73,34.8-91.1V76.35q0-5.17-5.91-5.91h-.58q-12.23,0-31.27,23.64Q190,102.95,174,124.2q-34.14,49.15-46,62.7a37.83,37.83,0,0,1,.49-4.84q8.86-48.26,10.1-61.39,0-8.3-5.34-8.29H132q-2.22,0-6.48,3.61C115.67,130.76,70.9,218.17,70.9,218.17c-2.83,4.77-5.13,10-7.67,14.88L48.6,261.53,42.16,274c-1.76,3.41-3.08,7.11-5.31,10.25-1.11,1.58-2.27,3.25-2.45,5.17a2.33,2.33,0,0,0,.87,2.29,1.84,1.84,0,0,0,1.49.1,4.71,4.71,0,0,0,1.33-.74c1.93-1.41,3-3.78,4.16-5.81,1.83-3.22,50.13-95.9,56-107.54q6.6-13.12,13.09-26.31,13.22-26.52,20.68-34.39a4.47,4.47,0,0,0,.66,1.88,87.63,87.63,0,0,1-.66,8.87q-9.93,55.16-9.93,60.82,0,3.69,4.68,4.18h.57q3.38,0,9.52-7.79l48.35-67.31q28.23-37.83,42.59-44.32,1.49,0,2.38,5.26a80.42,80.42,0,0,1-5.33,20.1q-5.67,15.77-18.3,44.9-19.75,39.85-31.8,70.45h0a.62.62,0,0,0-.06.17l-.06.14v0a22.21,22.21,0,0,0-1.07,4.5c0,2.94,1.51,5.92,4.9,5.92a12,12,0,0,0,1.65-.12c.06-.13.13-.25.2-.37.07-.33.13-.67.19-1,0-.17.06-.17-.06-.55S180.15,222,180,221.54Z"/><path class="cls-3" d="M79.76,66.29v3.44H86v1.94H79.76v3.51h7.17v1.93H77.61V64.36h9.1v1.93Z"/><path class="cls-3" d="M98.63,64.36a6.38,6.38,0,1,1,0,12.75H93.41V64.36ZM95.56,75.18h3.13a4.27,4.27,0,0,0,4.37-4.43,4.35,4.35,0,0,0-4.46-4.46h-3Z"/><path class="cls-3" d="M111.37,77.11V64.36h2.15V77.11Z"/><path class="cls-3" d="M122.88,66.29V70h5.79v1.91h-5.79v5.23h-2.15V64.36h8.56l0,1.93Z"/><path class="cls-3" d="M135.05,77.11V64.36h2.15V77.11Z"/><path class="cls-3" d="M154.9,66.27l-1.26,1.57a5,5,0,0,0-3.55-1.62,4.49,4.49,0,1,0,0,9,5.28,5.28,0,0,0,3.55-1.51l1.27,1.42A7.24,7.24,0,0,1,150,77.2a6.45,6.45,0,1,1,.07-12.89A7.05,7.05,0,0,1,154.9,66.27Z"/><path class="cls-3" d="M161,77.11V64.36h2.15V77.11Z"/><path class="cls-3" d="M182.76,70.74A6.76,6.76,0,1,1,176,64.31,6.52,6.52,0,0,1,182.76,70.74Zm-11.33,0A4.57,4.57,0,0,0,176,75.27a4.52,4.52,0,1,0-4.59-4.53Z"/><rect class="cls-2" x="0.31" y="351.98" width="371.81" height="61.03"/><path class="cls-3" d="M75.89,390.56v2.16H65.14v-19h2.55v16.79Z"/><path class="cls-3" d="M99.4,392.72h-2a.86.86,0,0,1-.55-.17,1,1,0,0,1-.32-.44l-1.77-4.57h-8.5l-1.78,4.57a.87.87,0,0,1-.3.42.8.8,0,0,1-.55.19h-2l7.58-19h2.59Zm-5.34-7-3-7.7c-.09-.23-.18-.5-.28-.8s-.19-.63-.28-1A13,13,0,0,1,90,378l-3,7.69Z"/><path class="cls-3" d="M122.54,373.77v19h-1.28a1.07,1.07,0,0,1-.51-.11,1.32,1.32,0,0,1-.41-.36l-11-14.27c0,.22,0,.43,0,.65s0,.41,0,.59v13.5h-2.25v-19h1.32l.29,0a1,1,0,0,1,.21.07.59.59,0,0,1,.19.13,2.3,2.3,0,0,1,.2.22l11,14.26c0-.22,0-.45,0-.66s0-.42,0-.62V373.77Z"/><path class="cls-3" d="M145.3,374.73a1.48,1.48,0,0,1-.26.84l-10.72,15.06h10.83v2.09H131v-1a1,1,0,0,1,.07-.39,2,2,0,0,1,.18-.36L142,375.86h-10.5v-2.09H145.3Z"/><path class="cls-3" d="M169.27,392.72h-2a.89.89,0,0,1-.56-.17,1.07,1.07,0,0,1-.31-.44l-1.78-4.57h-8.5l-1.77,4.57a.87.87,0,0,1-.3.42.83.83,0,0,1-.56.19h-2l7.57-19h2.6Zm-5.34-7-3-7.7c-.09-.23-.19-.5-.28-.8s-.19-.63-.28-1a14.52,14.52,0,0,1-.57,1.78l-3,7.69Z"/><path class="cls-3" d="M196.77,373.77v19h-2.25V378.8c0-.19,0-.39,0-.6s0-.43.05-.65l-6.51,11.85a1,1,0,0,1-.92.59h-.37a1,1,0,0,1-.93-.59l-6.63-11.9a12.39,12.39,0,0,1,.08,1.3v13.92h-2.25v-19H179a1.78,1.78,0,0,1,.53.07.74.74,0,0,1,.35.37l6.55,11.66c.1.21.21.43.31.66s.19.46.28.7c.09-.24.18-.47.28-.71a6.72,6.72,0,0,1,.32-.66L194,374.21a.7.7,0,0,1,.35-.37,1.86,1.86,0,0,1,.54-.07Z"/><path class="cls-3" d="M209.46,392.72h-2.57v-19h2.57Z"/><path class="cls-3" d="M231.27,390.63v2.09H219.59v-19h11.67v2.09h-9.11v6.3h7.38v2h-7.38v6.47Z"/><path class="cls-3" d="M255.49,373.77v19h-1.28a1.13,1.13,0,0,1-.51-.11,1.2,1.2,0,0,1-.4-.36l-11-14.27c0,.22,0,.43,0,.65s0,.41,0,.59v13.5h-2.25v-19h1.33l.29,0a1,1,0,0,1,.21.07.68.68,0,0,1,.18.13,2.3,2.3,0,0,1,.2.22l11,14.26c0-.22,0-.45-.05-.66s0-.42,0-.62V373.77Z"/><path class="cls-3" d="M278.43,375.93h-6.14v16.79h-2.55V375.93H263.6v-2.16h14.83Z"/><path class="cls-3" d="M303.18,383.25a11,11,0,0,1-.68,3.91,9,9,0,0,1-1.9,3.06,8.58,8.58,0,0,1-3,2,10.58,10.58,0,0,1-7.62,0,8.64,8.64,0,0,1-2.95-2,9,9,0,0,1-1.9-3.06,11.71,11.71,0,0,1,0-7.81,9,9,0,0,1,1.9-3.07,8.52,8.52,0,0,1,2.95-2,10.44,10.44,0,0,1,7.62,0,8.47,8.47,0,0,1,3,2,9,9,0,0,1,1.9,3.07A10.86,10.86,0,0,1,303.18,383.25Zm-2.63,0a9.52,9.52,0,0,0-.48-3.13,6.68,6.68,0,0,0-1.35-2.35,5.82,5.82,0,0,0-2.11-1.47,7.64,7.64,0,0,0-5.54,0,5.78,5.78,0,0,0-2.12,1.47,6.55,6.55,0,0,0-1.36,2.35,10.45,10.45,0,0,0,0,6.26,6.59,6.59,0,0,0,1.36,2.34,5.78,5.78,0,0,0,2.12,1.47,7.78,7.78,0,0,0,5.54,0,5.82,5.82,0,0,0,2.11-1.47,6.72,6.72,0,0,0,1.35-2.34A9.48,9.48,0,0,0,300.55,383.25Z"/></svg>